<mxfile host="app.diagrams.net" modified="2023-09-13T14:00:18.977Z" agent="Mozilla/5.0 (Macintosh; Intel Mac OS X 10_15_7) AppleWebKit/537.36 (KHTML, like Gecko) Chrome/116.0.0.0 Safari/537.36" etag="e2Z5XFGIDJfHHNOVlHeY" version="21.7.4" type="github">
  <diagram name="第 1 页" id="BmpL1vZxA9DmMoctIMRf">
    <mxGraphModel dx="2074" dy="1120" grid="1" gridSize="10" guides="1" tooltips="1" connect="1" arrows="1" fold="1" page="1" pageScale="1" pageWidth="4681" pageHeight="3300" math="0" shadow="0">
      <root>
        <mxCell id="0" />
        <mxCell id="1" parent="0" />
        <mxCell id="JVQWfwyNUmCcbEA4BYRT-2" value="" style="rounded=1;whiteSpace=wrap;html=1;dashed=1;fillColor=#ffcccc;strokeColor=#36393d;opacity=30;" vertex="1" parent="1">
          <mxGeometry x="770" y="690" width="880" height="170" as="geometry" />
        </mxCell>
        <mxCell id="JVQWfwyNUmCcbEA4BYRT-1" value="" style="rounded=1;whiteSpace=wrap;html=1;dashed=1;fillColor=#cce5ff;strokeColor=#36393d;opacity=50;" vertex="1" parent="1">
          <mxGeometry x="340" y="411" width="413" height="449" as="geometry" />
        </mxCell>
        <mxCell id="Q-oLn1-LLZS8o8Vc9U99-69" value="" style="edgeStyle=orthogonalEdgeStyle;rounded=0;orthogonalLoop=1;jettySize=auto;html=1;" parent="1" source="Q-oLn1-LLZS8o8Vc9U99-1" target="Q-oLn1-LLZS8o8Vc9U99-2" edge="1">
          <mxGeometry relative="1" as="geometry" />
        </mxCell>
        <mxCell id="Q-oLn1-LLZS8o8Vc9U99-1" value="&lt;font style=&quot;font-size: 24px;&quot;&gt;业务洽谈投放入口&lt;/font&gt;" style="rounded=1;whiteSpace=wrap;html=1;fillColor=#ffe6cc;strokeColor=#d79b00;" parent="1" vertex="1">
          <mxGeometry x="170" y="266.5" width="140" height="79" as="geometry" />
        </mxCell>
        <mxCell id="Q-oLn1-LLZS8o8Vc9U99-71" value="" style="edgeStyle=orthogonalEdgeStyle;rounded=0;orthogonalLoop=1;jettySize=auto;html=1;entryX=0.01;entryY=0.586;entryDx=0;entryDy=0;entryPerimeter=0;" parent="1" source="Q-oLn1-LLZS8o8Vc9U99-2" target="Q-oLn1-LLZS8o8Vc9U99-56" edge="1">
          <mxGeometry relative="1" as="geometry">
            <mxPoint x="1050" y="325" as="targetPoint" />
            <Array as="points">
              <mxPoint x="1057" y="306" />
            </Array>
          </mxGeometry>
        </mxCell>
        <mxCell id="Q-oLn1-LLZS8o8Vc9U99-86" value="" style="edgeStyle=orthogonalEdgeStyle;rounded=0;orthogonalLoop=1;jettySize=auto;html=1;" parent="1" source="Q-oLn1-LLZS8o8Vc9U99-2" target="Q-oLn1-LLZS8o8Vc9U99-3" edge="1">
          <mxGeometry relative="1" as="geometry">
            <Array as="points">
              <mxPoint x="410" y="390" />
              <mxPoint x="240" y="390" />
            </Array>
          </mxGeometry>
        </mxCell>
        <mxCell id="Q-oLn1-LLZS8o8Vc9U99-2" value="&lt;font style=&quot;font-size: 24px;&quot;&gt;会场页面配置&lt;/font&gt;" style="rounded=1;whiteSpace=wrap;html=1;fillColor=#ffe6cc;strokeColor=#d79b00;" parent="1" vertex="1">
          <mxGeometry x="370" y="271" width="170" height="70" as="geometry" />
        </mxCell>
        <mxCell id="Q-oLn1-LLZS8o8Vc9U99-85" value="" style="edgeStyle=orthogonalEdgeStyle;rounded=0;orthogonalLoop=1;jettySize=auto;html=1;entryX=0;entryY=0.5;entryDx=0;entryDy=0;exitX=0.5;exitY=1;exitDx=0;exitDy=0;" parent="1" source="Q-oLn1-LLZS8o8Vc9U99-3" target="Q-oLn1-LLZS8o8Vc9U99-52" edge="1">
          <mxGeometry relative="1" as="geometry">
            <mxPoint x="475" y="745" as="targetPoint" />
          </mxGeometry>
        </mxCell>
        <mxCell id="Q-oLn1-LLZS8o8Vc9U99-3" value="&lt;font style=&quot;font-size: 24px;&quot;&gt;会场奖励专用楼层&lt;/font&gt;" style="rounded=1;whiteSpace=wrap;html=1;fillColor=#ffe6cc;strokeColor=#d79b00;" parent="1" vertex="1">
          <mxGeometry x="180" y="570" width="120" height="70" as="geometry" />
        </mxCell>
        <mxCell id="Q-oLn1-LLZS8o8Vc9U99-7" value="&lt;font style=&quot;font-weight: normal; font-size: 18px;&quot;&gt;成交TOP&lt;/font&gt;" style="shape=cylinder3;whiteSpace=wrap;html=1;boundedLbl=1;backgroundOutline=1;size=15;fillColor=#ffe6cc;strokeColor=#d79b00;fontStyle=1" parent="1" vertex="1">
          <mxGeometry x="367" y="421" width="90" height="70" as="geometry" />
        </mxCell>
        <mxCell id="Q-oLn1-LLZS8o8Vc9U99-91" value="" style="edgeStyle=orthogonalEdgeStyle;rounded=0;orthogonalLoop=1;jettySize=auto;html=1;" parent="1" source="Q-oLn1-LLZS8o8Vc9U99-48" target="Q-oLn1-LLZS8o8Vc9U99-51" edge="1">
          <mxGeometry relative="1" as="geometry" />
        </mxCell>
        <mxCell id="Q-oLn1-LLZS8o8Vc9U99-48" value="&lt;font style=&quot;font-weight: normal; font-size: 18px;&quot;&gt;增速TOP&lt;/font&gt;" style="shape=cylinder3;whiteSpace=wrap;html=1;boundedLbl=1;backgroundOutline=1;size=15;fillColor=#ffe6cc;strokeColor=#d79b00;fontStyle=1" parent="1" vertex="1">
          <mxGeometry x="510" y="421" width="90" height="70" as="geometry" />
        </mxCell>
        <mxCell id="Q-oLn1-LLZS8o8Vc9U99-49" value="&lt;font style=&quot;font-weight: normal; font-size: 18px;&quot;&gt;效率TOP&lt;/font&gt;" style="shape=cylinder3;whiteSpace=wrap;html=1;boundedLbl=1;backgroundOutline=1;size=15;fillColor=#ffe6cc;strokeColor=#d79b00;fontStyle=1" parent="1" vertex="1">
          <mxGeometry x="643" y="421" width="90" height="70" as="geometry" />
        </mxCell>
        <mxCell id="Q-oLn1-LLZS8o8Vc9U99-50" value="&lt;font style=&quot;font-weight: normal; font-size: 18px;&quot;&gt;品牌授权&lt;/font&gt;" style="shape=cylinder3;whiteSpace=wrap;html=1;boundedLbl=1;backgroundOutline=1;size=15;fillColor=#fff2cc;strokeColor=#d6b656;fontStyle=1" parent="1" vertex="1">
          <mxGeometry x="389" y="591" width="90" height="70" as="geometry" />
        </mxCell>
        <mxCell id="Q-oLn1-LLZS8o8Vc9U99-51" value="&lt;font style=&quot;font-weight: normal; font-size: 18px;&quot;&gt;供应商列表&lt;/font&gt;" style="shape=cylinder3;whiteSpace=wrap;html=1;boundedLbl=1;backgroundOutline=1;size=15;fillColor=#fff2cc;strokeColor=#d6b656;fontStyle=1" parent="1" vertex="1">
          <mxGeometry x="505" y="591" width="100" height="70" as="geometry" />
        </mxCell>
        <mxCell id="Q-oLn1-LLZS8o8Vc9U99-83" value="" style="edgeStyle=orthogonalEdgeStyle;rounded=0;orthogonalLoop=1;jettySize=auto;html=1;entryX=0;entryY=0.5;entryDx=0;entryDy=0;" parent="1" source="Q-oLn1-LLZS8o8Vc9U99-52" target="Q-oLn1-LLZS8o8Vc9U99-53" edge="1">
          <mxGeometry relative="1" as="geometry">
            <mxPoint x="810" y="805" as="targetPoint" />
          </mxGeometry>
        </mxCell>
        <mxCell id="Q-oLn1-LLZS8o8Vc9U99-52" value="&lt;font style=&quot;font-size: 24px;&quot;&gt;奖励选品&lt;/font&gt;" style="rounded=1;whiteSpace=wrap;html=1;fillColor=#d5e8d4;strokeColor=#82b366;" parent="1" vertex="1">
          <mxGeometry x="389" y="770" width="170" height="70" as="geometry" />
        </mxCell>
        <mxCell id="Q-oLn1-LLZS8o8Vc9U99-63" value="" style="edgeStyle=orthogonalEdgeStyle;rounded=0;orthogonalLoop=1;jettySize=auto;html=1;" parent="1" source="Q-oLn1-LLZS8o8Vc9U99-53" target="Q-oLn1-LLZS8o8Vc9U99-54" edge="1">
          <mxGeometry relative="1" as="geometry" />
        </mxCell>
        <mxCell id="Q-oLn1-LLZS8o8Vc9U99-64" value="&lt;font style=&quot;font-size: 18px;&quot;&gt;商家提报&lt;/font&gt;" style="edgeLabel;html=1;align=center;verticalAlign=middle;resizable=0;points=[];" parent="Q-oLn1-LLZS8o8Vc9U99-63" vertex="1" connectable="0">
          <mxGeometry x="-0.2467" y="2" relative="1" as="geometry">
            <mxPoint x="12" y="2" as="offset" />
          </mxGeometry>
        </mxCell>
        <mxCell id="Q-oLn1-LLZS8o8Vc9U99-53" value="&lt;font style=&quot;font-size: 24px;&quot;&gt;奖励记录&lt;/font&gt;" style="rounded=1;whiteSpace=wrap;html=1;" parent="1" vertex="1">
          <mxGeometry x="780" y="770" width="170" height="70" as="geometry" />
        </mxCell>
        <mxCell id="Q-oLn1-LLZS8o8Vc9U99-59" value="" style="edgeStyle=orthogonalEdgeStyle;rounded=0;orthogonalLoop=1;jettySize=auto;html=1;" parent="1" source="Q-oLn1-LLZS8o8Vc9U99-54" target="Q-oLn1-LLZS8o8Vc9U99-58" edge="1">
          <mxGeometry relative="1" as="geometry" />
        </mxCell>
        <mxCell id="Q-oLn1-LLZS8o8Vc9U99-60" value="&lt;font style=&quot;font-size: 18px;&quot;&gt;小二导出记录&lt;/font&gt;" style="edgeLabel;html=1;align=center;verticalAlign=middle;resizable=0;points=[];" parent="Q-oLn1-LLZS8o8Vc9U99-59" vertex="1" connectable="0">
          <mxGeometry x="0.1833" y="-4" relative="1" as="geometry">
            <mxPoint as="offset" />
          </mxGeometry>
        </mxCell>
        <mxCell id="Q-oLn1-LLZS8o8Vc9U99-81" value="" style="edgeStyle=orthogonalEdgeStyle;rounded=0;orthogonalLoop=1;jettySize=auto;html=1;entryX=0;entryY=0.5;entryDx=0;entryDy=0;" parent="1" source="Q-oLn1-LLZS8o8Vc9U99-54" target="Q-oLn1-LLZS8o8Vc9U99-55" edge="1">
          <mxGeometry relative="1" as="geometry">
            <mxPoint x="1425" y="805" as="targetPoint" />
          </mxGeometry>
        </mxCell>
        <mxCell id="JVQWfwyNUmCcbEA4BYRT-3" value="&lt;font style=&quot;font-size: 18px;&quot;&gt;查看效果&lt;/font&gt;" style="edgeLabel;html=1;align=center;verticalAlign=middle;resizable=0;points=[];" vertex="1" connectable="0" parent="Q-oLn1-LLZS8o8Vc9U99-81">
          <mxGeometry x="-0.1467" relative="1" as="geometry">
            <mxPoint as="offset" />
          </mxGeometry>
        </mxCell>
        <mxCell id="Q-oLn1-LLZS8o8Vc9U99-54" value="&lt;font style=&quot;font-size: 24px;&quot;&gt;提报记录&lt;/font&gt;" style="rounded=1;whiteSpace=wrap;html=1;" parent="1" vertex="1">
          <mxGeometry x="1090" y="770" width="170" height="70" as="geometry" />
        </mxCell>
        <mxCell id="Q-oLn1-LLZS8o8Vc9U99-55" value="&lt;font style=&quot;font-size: 24px;&quot;&gt;效果数据&lt;/font&gt;" style="rounded=1;whiteSpace=wrap;html=1;" parent="1" vertex="1">
          <mxGeometry x="1460" y="770" width="170" height="70" as="geometry" />
        </mxCell>
        <mxCell id="Q-oLn1-LLZS8o8Vc9U99-75" value="" style="edgeStyle=orthogonalEdgeStyle;rounded=0;orthogonalLoop=1;jettySize=auto;html=1;entryX=0;entryY=0.5;entryDx=0;entryDy=0;" parent="1" source="Q-oLn1-LLZS8o8Vc9U99-56" target="Q-oLn1-LLZS8o8Vc9U99-67" edge="1">
          <mxGeometry relative="1" as="geometry">
            <mxPoint x="1480" y="306" as="targetPoint" />
            <Array as="points">
              <mxPoint x="1330" y="306" />
              <mxPoint x="1330" y="306" />
            </Array>
          </mxGeometry>
        </mxCell>
        <mxCell id="Q-oLn1-LLZS8o8Vc9U99-56" value="" style="rounded=0;whiteSpace=wrap;html=1;fillColor=#ffe6cc;strokeColor=#d79b00;" parent="1" vertex="1">
          <mxGeometry x="1055" y="160" width="230" height="251" as="geometry" />
        </mxCell>
        <mxCell id="Q-oLn1-LLZS8o8Vc9U99-57" value="" style="group" parent="1" vertex="1" connectable="0">
          <mxGeometry x="1140" y="510" width="70" height="90" as="geometry" />
        </mxCell>
        <mxCell id="Q-oLn1-LLZS8o8Vc9U99-8" value="" style="group" parent="Q-oLn1-LLZS8o8Vc9U99-57" vertex="1" connectable="0">
          <mxGeometry width="70" height="90" as="geometry" />
        </mxCell>
        <mxCell id="Q-oLn1-LLZS8o8Vc9U99-10" value="" style="shape=image;verticalLabelPosition=bottom;labelBackgroundColor=default;verticalAlign=top;aspect=fixed;imageAspect=0;image=https://images.freeimages.com/fic/images/icons/2795/office_2013_hd/2000/excel.png;movable=0;resizable=0;rotatable=0;deletable=0;editable=0;locked=1;connectable=0;" parent="Q-oLn1-LLZS8o8Vc9U99-8" vertex="1">
          <mxGeometry x="30" width="40" height="40" as="geometry" />
        </mxCell>
        <mxCell id="Q-oLn1-LLZS8o8Vc9U99-58" value="" style="shape=waypoint;sketch=0;size=6;pointerEvents=1;points=[];fillColor=default;resizable=0;rotatable=0;perimeter=centerPerimeter;snapToPoint=1;rounded=1;" parent="Q-oLn1-LLZS8o8Vc9U99-8" vertex="1">
          <mxGeometry x="25" y="70" width="20" height="20" as="geometry" />
        </mxCell>
        <mxCell id="Q-oLn1-LLZS8o8Vc9U99-9" value="" style="shape=image;verticalLabelPosition=bottom;labelBackgroundColor=default;verticalAlign=top;aspect=fixed;imageAspect=0;image=https://cdn-icons-png.flaticon.com/512/40/40031.png;" parent="Q-oLn1-LLZS8o8Vc9U99-57" vertex="1">
          <mxGeometry y="10" width="60" height="60" as="geometry" />
        </mxCell>
        <mxCell id="Q-oLn1-LLZS8o8Vc9U99-61" value="" style="edgeStyle=orthogonalEdgeStyle;rounded=0;orthogonalLoop=1;jettySize=auto;html=1;" parent="1" source="Q-oLn1-LLZS8o8Vc9U99-9" target="Q-oLn1-LLZS8o8Vc9U99-56" edge="1">
          <mxGeometry relative="1" as="geometry" />
        </mxCell>
        <mxCell id="Q-oLn1-LLZS8o8Vc9U99-62" value="&lt;font style=&quot;font-size: 18px;&quot;&gt;小二导入圈品集&lt;/font&gt;" style="edgeLabel;html=1;align=center;verticalAlign=middle;resizable=0;points=[];" parent="Q-oLn1-LLZS8o8Vc9U99-61" vertex="1" connectable="0">
          <mxGeometry x="0.1091" y="-3" relative="1" as="geometry">
            <mxPoint as="offset" />
          </mxGeometry>
        </mxCell>
        <mxCell id="Q-oLn1-LLZS8o8Vc9U99-65" value="&lt;font style=&quot;font-size: 24px;&quot;&gt;淘客会场&lt;/font&gt;" style="rounded=1;whiteSpace=wrap;html=1;" parent="1" vertex="1">
          <mxGeometry x="1085" y="220" width="170" height="70" as="geometry" />
        </mxCell>
        <mxCell id="Q-oLn1-LLZS8o8Vc9U99-66" value="&lt;font style=&quot;font-size: 24px;&quot;&gt;权益会场&lt;/font&gt;" style="rounded=1;whiteSpace=wrap;html=1;" parent="1" vertex="1">
          <mxGeometry x="1085" y="320" width="170" height="70" as="geometry" />
        </mxCell>
        <mxCell id="Q-oLn1-LLZS8o8Vc9U99-88" value="" style="edgeStyle=orthogonalEdgeStyle;rounded=0;orthogonalLoop=1;jettySize=auto;html=1;entryX=0.5;entryY=0;entryDx=0;entryDy=0;" parent="1" source="Q-oLn1-LLZS8o8Vc9U99-67" target="Q-oLn1-LLZS8o8Vc9U99-68" edge="1">
          <mxGeometry relative="1" as="geometry">
            <mxPoint x="1535" y="456" as="targetPoint" />
          </mxGeometry>
        </mxCell>
        <mxCell id="Q-oLn1-LLZS8o8Vc9U99-67" value="&lt;font style=&quot;font-size: 24px;&quot;&gt;用户成交&lt;/font&gt;" style="rounded=1;whiteSpace=wrap;html=1;fillColor=#ffe6cc;strokeColor=#d79b00;" parent="1" vertex="1">
          <mxGeometry x="1450" y="271" width="170" height="70" as="geometry" />
        </mxCell>
        <mxCell id="Q-oLn1-LLZS8o8Vc9U99-79" value="" style="edgeStyle=orthogonalEdgeStyle;rounded=0;orthogonalLoop=1;jettySize=auto;html=1;exitX=0.5;exitY=1;exitDx=0;exitDy=0;" parent="1" source="Q-oLn1-LLZS8o8Vc9U99-68" target="Q-oLn1-LLZS8o8Vc9U99-55" edge="1">
          <mxGeometry relative="1" as="geometry">
            <mxPoint x="1845" y="710" as="targetPoint" />
            <Array as="points">
              <mxPoint x="1535" y="670" />
              <mxPoint x="1535" y="670" />
            </Array>
          </mxGeometry>
        </mxCell>
        <mxCell id="Q-oLn1-LLZS8o8Vc9U99-68" value="&lt;font style=&quot;font-size: 24px;&quot;&gt;A+数据反馈&lt;/font&gt;" style="rounded=1;whiteSpace=wrap;html=1;fillColor=#ffe6cc;strokeColor=#d79b00;" parent="1" vertex="1">
          <mxGeometry x="1450" y="470" width="170" height="70" as="geometry" />
        </mxCell>
        <mxCell id="Q-oLn1-LLZS8o8Vc9U99-92" value="" style="shape=partialRectangle;whiteSpace=wrap;html=1;bottom=0;right=0;fillColor=none;rotation=-90;" parent="1" vertex="1">
          <mxGeometry x="457" y="420" width="30" height="174" as="geometry" />
        </mxCell>
        <mxCell id="Q-oLn1-LLZS8o8Vc9U99-93" value="" style="shape=partialRectangle;whiteSpace=wrap;html=1;bottom=0;right=0;fillColor=none;rotation=-180;" parent="1" vertex="1">
          <mxGeometry x="559" y="488" width="133" height="34" as="geometry" />
        </mxCell>
        <mxCell id="Q-oLn1-LLZS8o8Vc9U99-97" value="&lt;font style=&quot;font-size: 24px;&quot;&gt;站外营销会场&lt;/font&gt;" style="text;html=1;strokeColor=none;fillColor=none;align=center;verticalAlign=middle;whiteSpace=wrap;rounded=0;" parent="1" vertex="1">
          <mxGeometry x="1105" y="180" width="150" height="30" as="geometry" />
        </mxCell>
        <mxCell id="Q-oLn1-LLZS8o8Vc9U99-99" value="" style="edgeStyle=segmentEdgeStyle;endArrow=classic;html=1;curved=0;rounded=0;endSize=8;startSize=8;entryX=0.5;entryY=0;entryDx=0;entryDy=0;" parent="1" target="Q-oLn1-LLZS8o8Vc9U99-52" edge="1">
          <mxGeometry width="50" height="50" relative="1" as="geometry">
            <mxPoint x="430" y="660" as="sourcePoint" />
            <mxPoint x="460" y="700" as="targetPoint" />
            <Array as="points">
              <mxPoint x="430" y="657" />
              <mxPoint x="430" y="720" />
              <mxPoint x="474" y="720" />
            </Array>
          </mxGeometry>
        </mxCell>
        <mxCell id="Q-oLn1-LLZS8o8Vc9U99-101" value="" style="edgeStyle=segmentEdgeStyle;endArrow=classic;html=1;curved=0;rounded=0;endSize=8;startSize=8;exitX=0.5;exitY=1;exitDx=0;exitDy=0;exitPerimeter=0;entryX=0.5;entryY=0;entryDx=0;entryDy=0;" parent="1" source="Q-oLn1-LLZS8o8Vc9U99-51" target="Q-oLn1-LLZS8o8Vc9U99-52" edge="1">
          <mxGeometry width="50" height="50" relative="1" as="geometry">
            <mxPoint x="540" y="720" as="sourcePoint" />
            <mxPoint x="590" y="670" as="targetPoint" />
            <Array as="points">
              <mxPoint x="555" y="720" />
              <mxPoint x="474" y="720" />
            </Array>
          </mxGeometry>
        </mxCell>
      </root>
    </mxGraphModel>
  </diagram>
</mxfile>
